<svg xmlns="http://www.w3.org/2000/svg" width="20.66" height="18.141" viewBox="0 0 20.66 18.141">
  <g id="Wallet" transform="translate(-10255 -3404)">
    <path id="Path_803" data-name="Path 803" d="M47.176,7.61l1.406-.061a.658.658,0,0,0,.489-.611V5.226H33.911a.539.539,0,0,1-.55-.489.548.548,0,0,1,.55-.55h2.812l1.956-.917H33.056a.678.678,0,0,0-.672.672V16.9a.678.678,0,0,0,.672.672H48.4a.678.678,0,0,0,.672-.672v-3a.678.678,0,0,0-.672-.672H46.32a1.658,1.658,0,0,1-1.65-1.711V9.26c0-1.528,1.284-1.65,2.506-1.65ZM39.107,4.187h6.724L44.547,1.619l-5.44,2.567Zm7.885,0H49.07V3.942A.678.678,0,0,0,48.4,3.27H46.5l.489.917Zm-.978-1.956H48.4a1.7,1.7,0,0,1,1.65,1.711v3a1.317,1.317,0,0,1-.122.672h.367A1.7,1.7,0,0,1,52,9.26v2.262a1.749,1.749,0,0,1-1.711,1.711h-.367a1.21,1.21,0,0,1,.122.672v3a1.644,1.644,0,0,1-1.65,1.65H33.055a1.7,1.7,0,0,1-1.711-1.65V3.942a1.749,1.749,0,0,1,1.711-1.711h7.763L44.608.458A.514.514,0,0,1,45.28.7l.733,1.528Zm4.279,6.418H46.32a.578.578,0,0,0-.611.611v2.262a.628.628,0,0,0,.611.672h3.973a.678.678,0,0,0,.672-.672V9.26A.628.628,0,0,0,50.293,8.649Z" transform="translate(10223.656 3403.59)" fill="#2699fb"/>
    <path id="Path_804" data-name="Path 804" d="M508.085,285.513a.795.795,0,1,1-.795-.795.795.795,0,0,1,.795.795" transform="translate(9763.907 3128.499)" fill="#2699fb" fill-rule="evenodd"/>
  </g>
</svg>
